<mxfile host="app.diagrams.net" modified="2024-02-04T23:46:51.069Z" agent="Mozilla/5.0 (Windows NT 10.0; Win64; x64) AppleWebKit/537.36 (KHTML, like Gecko) Chrome/121.0.0.0 Safari/537.36" version="22.1.16" etag="rqxFoiSmMP4g68LMzvcL" type="github">
  <diagram name="Page-1" id="t-tpg8Ew0c0VZeAWfQLl">
    <mxGraphModel>
      <root>
        <mxCell id="0" />
        <mxCell id="1" parent="0" />
      </root>
    </mxGraphModel>
  </diagram>
</mxfile>
